<svg xmlns="http://www.w3.org/2000/svg" xmlns:xlink="http://www.w3.org/1999/xlink" width="500" zoomAndPan="magnify" viewBox="0 0 375 374.999991" height="500" preserveAspectRatio="xMidYMid meet" version="1.2"><defs><clipPath id="3fff111832"><path d="M 55.921875 136.765625 L 107.296875 136.765625 L 107.296875 222.390625 L 55.921875 222.390625 Z M 55.921875 136.765625 "/></clipPath><clipPath id="b2b979e514"><path d="M 22 170 L 75 170 L 75 257 L 22 257 Z M 22 170 "/></clipPath><clipPath id="85e45fb0dc"><path d="M 74.832031 255.910156 L 23.460938 256.859375 L 21.882812 171.246094 L 73.25 170.296875 Z M 74.832031 255.910156 "/></clipPath><clipPath id="231920fc91"><path d="M 74.832031 255.910156 L 23.460938 256.859375 L 21.882812 171.246094 L 73.25 170.296875 Z M 74.832031 255.910156 "/></clipPath></defs><g id="ad4855d4aa"><g clip-rule="nonzero" clip-path="url(#3fff111832)"><path style=" stroke:none;fill-rule:nonzero;fill:#00bfff;fill-opacity:1;" d="M 58.402344 219.910156 C 58.003906 219.511719 57.644531 219.078125 57.328125 218.609375 C 57.011719 218.140625 56.746094 217.644531 56.53125 217.121094 C 56.3125 216.601562 56.148438 216.0625 56.039062 215.507812 C 55.925781 214.953125 55.871094 214.394531 55.871094 213.828125 C 55.871094 213.265625 55.925781 212.703125 56.039062 212.148438 C 56.148438 211.597656 56.3125 211.058594 56.53125 210.535156 C 56.746094 210.015625 57.011719 209.519531 57.328125 209.050781 C 57.644531 208.582031 58.003906 208.148438 58.402344 207.75 L 86.660156 179.578125 L 58.402344 151.40625 C 58.003906 151.007812 57.644531 150.574219 57.328125 150.105469 C 57.011719 149.636719 56.746094 149.140625 56.53125 148.621094 C 56.3125 148.097656 56.148438 147.5625 56.039062 147.007812 C 55.925781 146.453125 55.871094 145.894531 55.871094 145.328125 C 55.871094 144.761719 55.925781 144.203125 56.039062 143.648438 C 56.148438 143.09375 56.3125 142.554688 56.53125 142.035156 C 56.746094 141.511719 57.011719 141.015625 57.328125 140.546875 C 57.644531 140.078125 58.003906 139.644531 58.402344 139.246094 C 58.800781 138.847656 59.234375 138.488281 59.703125 138.171875 C 60.171875 137.855469 60.667969 137.589844 61.191406 137.375 C 61.710938 137.15625 62.25 136.992188 62.804688 136.882812 C 63.359375 136.769531 63.917969 136.714844 64.484375 136.714844 C 65.046875 136.714844 65.609375 136.769531 66.164062 136.882812 C 66.714844 136.992188 67.253906 137.15625 67.777344 137.375 C 68.296875 137.589844 68.792969 137.855469 69.261719 138.171875 C 69.730469 138.488281 70.164062 138.847656 70.5625 139.246094 L 104.8125 173.5 C 105.214844 173.898438 105.574219 174.332031 105.890625 174.800781 C 106.203125 175.269531 106.46875 175.761719 106.6875 176.285156 C 106.90625 176.808594 107.070312 177.34375 107.179688 177.898438 C 107.292969 178.453125 107.347656 179.011719 107.347656 179.578125 C 107.347656 180.144531 107.292969 180.703125 107.179688 181.257812 C 107.070312 181.8125 106.90625 182.347656 106.6875 182.871094 C 106.46875 183.394531 106.203125 183.886719 105.890625 184.355469 C 105.574219 184.828125 105.214844 185.261719 104.8125 185.65625 L 70.5625 219.910156 C 70.164062 220.308594 69.730469 220.667969 69.261719 220.984375 C 68.792969 221.300781 68.296875 221.566406 67.777344 221.78125 C 67.253906 222 66.714844 222.164062 66.164062 222.273438 C 65.609375 222.386719 65.046875 222.441406 64.484375 222.441406 C 63.917969 222.441406 63.359375 222.386719 62.804688 222.273438 C 62.25 222.164062 61.710938 222 61.191406 221.78125 C 60.667969 221.566406 60.171875 221.300781 59.703125 220.984375 C 59.234375 220.667969 58.800781 220.308594 58.402344 219.910156 Z M 58.402344 219.910156 "/></g><g clip-rule="nonzero" clip-path="url(#b2b979e514)"><g clip-rule="nonzero" clip-path="url(#85e45fb0dc)"><g clip-rule="nonzero" clip-path="url(#231920fc91)"><path style=" stroke:none;fill-rule:nonzero;fill:#ff4500;fill-opacity:1;" d="M 70.8125 172.824219 C 71.21875 173.214844 71.585938 173.640625 71.910156 174.105469 C 72.234375 174.570312 72.511719 175.058594 72.738281 175.578125 C 72.964844 176.09375 73.136719 176.628906 73.257812 177.179688 C 73.378906 177.734375 73.445312 178.292969 73.457031 178.855469 C 73.46875 179.421875 73.421875 179.984375 73.320312 180.539062 C 73.222656 181.09375 73.066406 181.636719 72.859375 182.160156 C 72.652344 182.6875 72.394531 183.1875 72.085938 183.660156 C 71.78125 184.136719 71.429688 184.578125 71.035156 184.980469 L 43.304688 213.671875 L 72.078125 241.316406 C 72.484375 241.707031 72.851562 242.132812 73.175781 242.59375 C 73.5 243.058594 73.777344 243.550781 74.003906 244.066406 C 74.230469 244.585938 74.402344 245.121094 74.523438 245.671875 C 74.644531 246.222656 74.710938 246.78125 74.722656 247.347656 C 74.730469 247.910156 74.6875 248.472656 74.585938 249.027344 C 74.484375 249.585938 74.332031 250.125 74.125 250.652344 C 73.917969 251.175781 73.660156 251.675781 73.351562 252.152344 C 73.046875 252.625 72.695312 253.066406 72.300781 253.472656 C 71.910156 253.878906 71.484375 254.246094 71.019531 254.570312 C 70.558594 254.894531 70.066406 255.171875 69.550781 255.398438 C 69.03125 255.625 68.496094 255.796875 67.945312 255.917969 C 67.394531 256.039062 66.835938 256.105469 66.269531 256.117188 C 65.703125 256.128906 65.144531 256.082031 64.589844 255.980469 C 64.03125 255.882812 63.492188 255.726562 62.964844 255.519531 C 62.441406 255.3125 61.941406 255.054688 61.464844 254.746094 C 60.988281 254.441406 60.550781 254.089844 60.144531 253.695312 L 25.265625 220.085938 C 24.859375 219.695312 24.492188 219.265625 24.167969 218.804688 C 23.84375 218.339844 23.570312 217.851562 23.339844 217.332031 C 23.113281 216.816406 22.941406 216.28125 22.820312 215.726562 C 22.699219 215.175781 22.632812 214.617188 22.621094 214.050781 C 22.613281 213.488281 22.65625 212.925781 22.757812 212.371094 C 22.859375 211.816406 23.011719 211.273438 23.21875 210.75 C 23.425781 210.222656 23.683594 209.722656 23.992188 209.246094 C 24.296875 208.773438 24.648438 208.332031 25.042969 207.925781 L 58.65625 173.050781 C 59.046875 172.640625 59.472656 172.273438 59.933594 171.949219 C 60.398438 171.625 60.886719 171.351562 61.40625 171.125 C 61.925781 170.898438 62.457031 170.722656 63.011719 170.601562 C 63.5625 170.480469 64.121094 170.414062 64.6875 170.40625 C 65.25 170.394531 65.8125 170.441406 66.367188 170.539062 C 66.925781 170.640625 67.464844 170.796875 67.992188 171.003906 C 68.515625 171.210938 69.015625 171.46875 69.492188 171.773438 C 69.964844 172.082031 70.40625 172.429688 70.8125 172.824219 Z M 70.8125 172.824219 "/></g></g></g><g style="fill:#00bfff;fill-opacity:1;"><g transform="translate(112.793032, 219.553037)"><path style="stroke:none" d="M 5.15625 -43.421875 L 24.875 -43.421875 C 29.59375 -43.421875 33.757812 -42.519531 37.375 -40.71875 C 40.988281 -38.925781 43.796875 -36.394531 45.796875 -33.125 C 47.804688 -29.851562 48.8125 -26.050781 48.8125 -21.71875 C 48.8125 -17.375 47.804688 -13.566406 45.796875 -10.296875 C 43.796875 -7.023438 40.988281 -4.488281 37.375 -2.6875 C 33.757812 -0.894531 29.59375 0 24.875 0 L 5.15625 0 Z M 24.375 -8.25 C 28.71875 -8.25 32.179688 -9.457031 34.765625 -11.875 C 37.347656 -14.300781 38.640625 -17.582031 38.640625 -21.71875 C 38.640625 -25.851562 37.347656 -29.128906 34.765625 -31.546875 C 32.179688 -33.960938 28.71875 -35.171875 24.375 -35.171875 L 15.203125 -35.171875 L 15.203125 -8.25 Z M 24.375 -8.25 "/></g></g><g style="fill:#00bfff;fill-opacity:1;"><g transform="translate(164.018009, 219.553037)"><path style="stroke:none" d="M 37.15625 -16.5625 C 37.15625 -16.4375 37.09375 -15.566406 36.96875 -13.953125 L 11.71875 -13.953125 C 12.175781 -11.890625 13.253906 -10.253906 14.953125 -9.046875 C 16.648438 -7.847656 18.757812 -7.25 21.28125 -7.25 C 23.007812 -7.25 24.546875 -7.507812 25.890625 -8.03125 C 27.242188 -8.550781 28.5 -9.367188 29.65625 -10.484375 L 34.796875 -4.90625 C 31.648438 -1.300781 27.0625 0.5 21.03125 0.5 C 17.269531 0.5 13.941406 -0.234375 11.046875 -1.703125 C 8.148438 -3.171875 5.914062 -5.207031 4.34375 -7.8125 C 2.769531 -10.414062 1.984375 -13.375 1.984375 -16.6875 C 1.984375 -19.957031 2.757812 -22.90625 4.3125 -25.53125 C 5.863281 -28.15625 7.992188 -30.203125 10.703125 -31.671875 C 13.410156 -33.140625 16.4375 -33.875 19.78125 -33.875 C 23.050781 -33.875 26.007812 -33.171875 28.65625 -31.765625 C 31.300781 -30.359375 33.378906 -28.335938 34.890625 -25.703125 C 36.398438 -23.078125 37.15625 -20.03125 37.15625 -16.5625 Z M 19.84375 -26.546875 C 17.65625 -26.546875 15.816406 -25.925781 14.328125 -24.6875 C 12.835938 -23.445312 11.925781 -21.753906 11.59375 -19.609375 L 28.03125 -19.609375 C 27.707031 -21.710938 26.800781 -23.394531 25.3125 -24.65625 C 23.820312 -25.914062 22 -26.546875 19.84375 -26.546875 Z M 19.84375 -26.546875 "/></g></g><g style="fill:#00bfff;fill-opacity:1;"><g transform="translate(202.529675, 219.553037)"><path style="stroke:none" d="M 37.59375 -33.375 L 23.515625 0 L 13.515625 0 L -0.5 -33.375 L 9.484375 -33.375 L 18.734375 -10.671875 L 28.28125 -33.375 Z M 37.59375 -33.375 "/></g></g><g style="fill:#ff4500;fill-opacity:1;"><g transform="translate(239.625055, 219.553037)"><path style="stroke:none" d="M 5.15625 -43.421875 L 15.203125 -43.421875 L 15.203125 -8.1875 L 36.96875 -8.1875 L 36.96875 0 L 5.15625 0 Z M 5.15625 -43.421875 "/></g></g><g style="fill:#ff4500;fill-opacity:1;"><g transform="translate(277.082538, 219.553037)"><path style="stroke:none" d="M 4.46875 -33.375 L 14.140625 -33.375 L 14.140625 0 L 4.46875 0 Z M 9.3125 -38.03125 C 7.53125 -38.03125 6.082031 -38.546875 4.96875 -39.578125 C 3.851562 -40.609375 3.296875 -41.890625 3.296875 -43.421875 C 3.296875 -44.953125 3.851562 -46.234375 4.96875 -47.265625 C 6.082031 -48.296875 7.53125 -48.8125 9.3125 -48.8125 C 11.09375 -48.8125 12.539062 -48.316406 13.65625 -47.328125 C 14.769531 -46.335938 15.328125 -45.097656 15.328125 -43.609375 C 15.328125 -41.992188 14.769531 -40.660156 13.65625 -39.609375 C 12.539062 -38.554688 11.09375 -38.03125 9.3125 -38.03125 Z M 9.3125 -38.03125 "/></g></g><g style="fill:#ff4500;fill-opacity:1;"><g transform="translate(295.74927, 219.553037)"><path style="stroke:none" d="M 15.078125 -32.625 L 23.640625 -32.625 L 23.640625 -25.1875 L 15.328125 -25.1875 L 15.328125 0 L 5.640625 0 L 5.640625 -25.1875 L 0.5 -25.1875 L 0.5 -32.625 L 5.640625 -32.625 L 5.640625 -34.125 C 5.640625 -37.925781 6.765625 -40.941406 9.015625 -43.171875 C 11.273438 -45.410156 14.453125 -46.53125 18.546875 -46.53125 C 19.992188 -46.53125 21.367188 -46.375 22.671875 -46.0625 C 23.972656 -45.75 25.054688 -45.300781 25.921875 -44.71875 L 23.390625 -37.71875 C 22.273438 -38.5 20.972656 -38.890625 19.484375 -38.890625 C 16.546875 -38.890625 15.078125 -37.28125 15.078125 -34.0625 Z M 15.078125 -32.625 "/></g></g><g style="fill:#ff4500;fill-opacity:1;"><g transform="translate(319.749349, 219.553037)"><path style="stroke:none" d="M 25.984375 -1.609375 C 25.035156 -0.910156 23.867188 -0.382812 22.484375 -0.03125 C 21.097656 0.320312 19.640625 0.5 18.109375 0.5 C 14.140625 0.5 11.066406 -0.507812 8.890625 -2.53125 C 6.722656 -4.5625 5.640625 -7.539062 5.640625 -11.46875 L 5.640625 -25.1875 L 0.5 -25.1875 L 0.5 -32.625 L 5.640625 -32.625 L 5.640625 -40.75 L 15.328125 -40.75 L 15.328125 -32.625 L 23.640625 -32.625 L 23.640625 -25.1875 L 15.328125 -25.1875 L 15.328125 -11.59375 C 15.328125 -10.1875 15.6875 -9.101562 16.40625 -8.34375 C 17.132812 -7.582031 18.160156 -7.203125 19.484375 -7.203125 C 21.003906 -7.203125 22.304688 -7.613281 23.390625 -8.4375 Z M 25.984375 -1.609375 "/></g></g></g></svg>