<svg xmlns="http://www.w3.org/2000/svg" xmlns:xlink="http://www.w3.org/1999/xlink" width="500" zoomAndPan="magnify" viewBox="0 0 375 374.999991" height="500" preserveAspectRatio="xMidYMid meet" version="1.2"><defs><clipPath id="559e2b3068"><path d="M 161.652344 8.449219 L 314.851562 8.449219 L 314.851562 263.777344 L 161.652344 263.777344 Z M 161.652344 8.449219 "/></clipPath><clipPath id="6f7fcd3b10"><path d="M 62 108 L 218 108 L 218 365 L 62 365 Z M 62 108 "/></clipPath><clipPath id="5df0fa5720"><path d="M 218.039062 363.722656 L 64.867188 366.550781 L 60.148438 111.265625 L 213.320312 108.4375 Z M 218.039062 363.722656 "/></clipPath><clipPath id="c30583085f"><path d="M 218.039062 363.722656 L 64.867188 366.550781 L 60.148438 111.265625 L 213.320312 108.4375 Z M 218.039062 363.722656 "/></clipPath></defs><g id="88dbfa8bef"><g clip-rule="nonzero" clip-path="url(#559e2b3068)"><path style=" stroke:none;fill-rule:nonzero;fill:#00bfff;fill-opacity:1;" d="M 169.054688 256.375 C 168.460938 255.78125 167.894531 255.160156 167.359375 254.515625 C 166.820312 253.867188 166.320312 253.191406 165.851562 252.496094 C 165.382812 251.796875 164.949219 251.078125 164.550781 250.339844 C 164.152344 249.597656 163.789062 248.839844 163.46875 248.0625 C 163.144531 247.289062 162.859375 246.5 162.613281 245.695312 C 162.371094 244.890625 162.164062 244.078125 162 243.25 C 161.835938 242.425781 161.710938 241.597656 161.628906 240.761719 C 161.546875 239.925781 161.503906 239.085938 161.503906 238.246094 C 161.503906 237.40625 161.546875 236.566406 161.628906 235.730469 C 161.710938 234.894531 161.835938 234.0625 162 233.238281 C 162.164062 232.414062 162.371094 231.601562 162.613281 230.796875 C 162.859375 229.992188 163.144531 229.203125 163.46875 228.425781 C 163.789062 227.648438 164.152344 226.890625 164.550781 226.152344 C 164.949219 225.410156 165.382812 224.691406 165.851562 223.996094 C 166.320312 223.296875 166.820312 222.625 167.359375 221.976562 C 167.894531 221.328125 168.460938 220.707031 169.054688 220.117188 L 253.316406 136.113281 L 169.054688 52.109375 C 168.460938 51.515625 167.894531 50.898438 167.359375 50.25 C 166.820312 49.601562 166.320312 48.929688 165.851562 48.230469 C 165.382812 47.535156 164.949219 46.816406 164.550781 46.074219 C 164.152344 45.335938 163.789062 44.574219 163.46875 43.800781 C 163.144531 43.023438 162.859375 42.234375 162.613281 41.429688 C 162.371094 40.625 162.164062 39.8125 162 38.988281 C 161.835938 38.164062 161.710938 37.332031 161.628906 36.496094 C 161.546875 35.660156 161.503906 34.820312 161.503906 33.980469 C 161.503906 33.140625 161.546875 32.300781 161.628906 31.464844 C 161.710938 30.628906 161.835938 29.796875 162 28.972656 C 162.164062 28.148438 162.371094 27.335938 162.613281 26.53125 C 162.859375 25.726562 163.144531 24.9375 163.46875 24.160156 C 163.789062 23.386719 164.152344 22.628906 164.550781 21.886719 C 164.949219 21.144531 165.382812 20.425781 165.851562 19.730469 C 166.320312 19.03125 166.820312 18.359375 167.359375 17.710938 C 167.894531 17.0625 168.460938 16.445312 169.054688 15.851562 C 169.648438 15.253906 170.269531 14.6875 170.917969 14.152344 C 171.5625 13.617188 172.238281 13.117188 172.933594 12.644531 C 173.632812 12.175781 174.351562 11.742188 175.089844 11.34375 C 175.832031 10.945312 176.589844 10.585938 177.367188 10.261719 C 178.140625 9.941406 178.929688 9.65625 179.734375 9.410156 C 180.539062 9.164062 181.355469 8.960938 182.179688 8.796875 C 183.003906 8.628906 183.832031 8.507812 184.667969 8.421875 C 185.503906 8.339844 186.34375 8.300781 187.183594 8.300781 C 188.023438 8.300781 188.863281 8.339844 189.699219 8.421875 C 190.535156 8.507812 191.367188 8.628906 192.191406 8.796875 C 193.015625 8.960938 193.832031 9.164062 194.632812 9.410156 C 195.4375 9.65625 196.226562 9.941406 197.003906 10.261719 C 197.78125 10.585938 198.539062 10.945312 199.277344 11.34375 C 200.019531 11.742188 200.738281 12.175781 201.433594 12.644531 C 202.132812 13.117188 202.804688 13.617188 203.453125 14.152344 C 204.101562 14.6875 204.722656 15.253906 205.3125 15.851562 L 307.445312 117.984375 C 308.042969 118.578125 308.609375 119.195312 309.144531 119.84375 C 309.679688 120.492188 310.183594 121.164062 310.652344 121.863281 C 311.121094 122.558594 311.554688 123.277344 311.953125 124.019531 C 312.351562 124.757812 312.710938 125.515625 313.035156 126.292969 C 313.359375 127.070312 313.640625 127.859375 313.886719 128.664062 C 314.132812 129.46875 314.335938 130.28125 314.503906 131.105469 C 314.667969 131.929688 314.789062 132.761719 314.875 133.597656 C 314.957031 134.433594 315 135.273438 315 136.113281 C 315 136.953125 314.957031 137.792969 314.875 138.628906 C 314.789062 139.464844 314.667969 140.296875 314.503906 141.121094 C 314.335938 141.945312 314.132812 142.757812 313.886719 143.5625 C 313.640625 144.367188 313.359375 145.15625 313.035156 145.933594 C 312.710938 146.707031 312.351562 147.464844 311.953125 148.207031 C 311.554688 148.945312 311.121094 149.664062 310.652344 150.363281 C 310.183594 151.0625 309.679688 151.734375 309.144531 152.382812 C 308.609375 153.03125 308.042969 153.648438 307.445312 154.242188 L 205.3125 256.375 C 204.722656 256.96875 204.101562 257.535156 203.453125 258.070312 C 202.804688 258.609375 202.132812 259.109375 201.433594 259.578125 C 200.738281 260.046875 200.019531 260.480469 199.277344 260.878906 C 198.539062 261.277344 197.78125 261.640625 197.003906 261.960938 C 196.226562 262.285156 195.4375 262.570312 194.632812 262.816406 C 193.828125 263.058594 193.015625 263.265625 192.191406 263.429688 C 191.367188 263.59375 190.535156 263.71875 189.699219 263.800781 C 188.863281 263.886719 188.023438 263.925781 187.183594 263.925781 C 186.34375 263.925781 185.503906 263.886719 184.667969 263.800781 C 183.832031 263.71875 183.003906 263.59375 182.179688 263.429688 C 181.355469 263.265625 180.539062 263.058594 179.734375 262.816406 C 178.929688 262.570312 178.140625 262.285156 177.367188 261.960938 C 176.589844 261.640625 175.832031 261.277344 175.089844 260.878906 C 174.351562 260.480469 173.632812 260.046875 172.933594 259.578125 C 172.238281 259.109375 171.5625 258.609375 170.917969 258.070312 C 170.269531 257.535156 169.648438 256.96875 169.054688 256.375 Z M 169.054688 256.375 "/></g><g clip-rule="nonzero" clip-path="url(#6f7fcd3b10)"><g clip-rule="nonzero" clip-path="url(#5df0fa5720)"><g clip-rule="nonzero" clip-path="url(#c30583085f)"><path style=" stroke:none;fill-rule:nonzero;fill:#ff4500;fill-opacity:1;" d="M 206.054688 115.976562 C 206.664062 116.558594 207.242188 117.167969 207.789062 117.804688 C 208.335938 118.441406 208.851562 119.105469 209.332031 119.792969 C 209.816406 120.484375 210.261719 121.195312 210.671875 121.925781 C 211.085938 122.660156 211.460938 123.410156 211.796875 124.179688 C 212.132812 124.949219 212.433594 125.734375 212.695312 126.535156 C 212.953125 127.332031 213.171875 128.144531 213.355469 128.964844 C 213.535156 129.785156 213.671875 130.613281 213.769531 131.449219 C 213.871094 132.285156 213.925781 133.121094 213.941406 133.960938 C 213.957031 134.800781 213.929688 135.640625 213.863281 136.480469 C 213.796875 137.316406 213.6875 138.148438 213.539062 138.976562 C 213.390625 139.804688 213.199219 140.621094 212.96875 141.429688 C 212.738281 142.238281 212.46875 143.035156 212.160156 143.816406 C 211.851562 144.597656 211.503906 145.363281 211.121094 146.109375 C 210.734375 146.855469 210.316406 147.585938 209.859375 148.289062 C 209.402344 148.996094 208.914062 149.679688 208.390625 150.335938 C 207.867188 150.992188 207.3125 151.625 206.726562 152.226562 L 124.03125 237.773438 L 209.828125 320.207031 C 210.4375 320.785156 211.011719 321.394531 211.5625 322.035156 C 212.109375 322.671875 212.625 323.335938 213.105469 324.023438 C 213.585938 324.710938 214.035156 325.421875 214.445312 326.15625 C 214.859375 326.890625 215.230469 327.640625 215.570312 328.410156 C 215.90625 329.179688 216.207031 329.964844 216.464844 330.765625 C 216.726562 331.5625 216.945312 332.375 217.125 333.195312 C 217.304688 334.015625 217.445312 334.84375 217.542969 335.679688 C 217.640625 336.511719 217.699219 337.351562 217.714844 338.191406 C 217.730469 339.03125 217.703125 339.871094 217.636719 340.710938 C 217.570312 341.546875 217.460938 342.378906 217.3125 343.207031 C 217.160156 344.035156 216.972656 344.851562 216.742188 345.660156 C 216.511719 346.46875 216.242188 347.261719 215.933594 348.046875 C 215.625 348.828125 215.277344 349.59375 214.894531 350.339844 C 214.507812 351.085938 214.085938 351.8125 213.632812 352.519531 C 213.175781 353.226562 212.6875 353.90625 212.160156 354.566406 C 211.636719 355.222656 211.082031 355.851562 210.496094 356.457031 C 209.917969 357.0625 209.308594 357.640625 208.671875 358.1875 C 208.03125 358.738281 207.367188 359.25 206.679688 359.734375 C 205.992188 360.214844 205.28125 360.660156 204.546875 361.074219 C 203.816406 361.484375 203.0625 361.859375 202.292969 362.199219 C 201.523438 362.535156 200.738281 362.835938 199.941406 363.09375 C 199.140625 363.355469 198.332031 363.574219 197.507812 363.753906 C 196.6875 363.933594 195.859375 364.074219 195.023438 364.171875 C 194.191406 364.269531 193.351562 364.328125 192.511719 364.34375 C 191.671875 364.359375 190.832031 364.332031 189.996094 364.265625 C 189.15625 364.199219 188.324219 364.089844 187.496094 363.9375 C 186.667969 363.789062 185.851562 363.601562 185.042969 363.371094 C 184.234375 363.140625 183.441406 362.871094 182.65625 362.558594 C 181.875 362.25 181.113281 361.90625 180.363281 361.519531 C 179.617188 361.136719 178.890625 360.714844 178.183594 360.257812 C 177.476562 359.804688 176.796875 359.3125 176.136719 358.789062 C 175.480469 358.265625 174.851562 357.710938 174.246094 357.125 L 70.246094 256.898438 C 69.636719 256.316406 69.0625 255.707031 68.511719 255.070312 C 67.964844 254.429688 67.449219 253.769531 66.96875 253.078125 C 66.488281 252.390625 66.039062 251.679688 65.628906 250.945312 C 65.214844 250.214844 64.84375 249.464844 64.503906 248.691406 C 64.167969 247.921875 63.867188 247.136719 63.609375 246.339844 C 63.347656 245.539062 63.128906 244.730469 62.949219 243.910156 C 62.769531 243.085938 62.628906 242.257812 62.53125 241.425781 C 62.433594 240.589844 62.375 239.753906 62.359375 238.910156 C 62.34375 238.070312 62.371094 237.230469 62.4375 236.394531 C 62.503906 235.554688 62.613281 234.722656 62.761719 233.894531 C 62.914062 233.070312 63.101562 232.25 63.332031 231.441406 C 63.5625 230.632812 63.832031 229.839844 64.140625 229.058594 C 64.449219 228.277344 64.796875 227.511719 65.183594 226.761719 C 65.566406 226.015625 65.988281 225.289062 66.441406 224.582031 C 66.898438 223.878906 67.390625 223.195312 67.914062 222.539062 C 68.4375 221.878906 68.992188 221.25 69.578125 220.648438 L 169.804688 116.644531 C 170.386719 116.039062 170.996094 115.460938 171.632812 114.914062 C 172.269531 114.367188 172.933594 113.851562 173.621094 113.367188 C 174.3125 112.886719 175.023438 112.441406 175.753906 112.027344 C 176.488281 111.617188 177.238281 111.242188 178.007812 110.902344 C 178.777344 110.566406 179.5625 110.269531 180.363281 110.007812 C 181.164062 109.746094 181.972656 109.527344 182.792969 109.347656 C 183.613281 109.167969 184.441406 109.027344 185.277344 108.929688 C 186.113281 108.832031 186.949219 108.773438 187.789062 108.757812 C 188.632812 108.742188 189.46875 108.769531 190.308594 108.835938 C 191.144531 108.90625 191.980469 109.011719 192.804688 109.164062 C 193.632812 109.3125 194.449219 109.503906 195.257812 109.734375 C 196.066406 109.960938 196.863281 110.234375 197.644531 110.542969 C 198.425781 110.851562 199.191406 111.195312 199.9375 111.582031 C 200.6875 111.964844 201.414062 112.386719 202.121094 112.84375 C 202.824219 113.296875 203.507812 113.789062 204.164062 114.3125 C 204.824219 114.835938 205.453125 115.390625 206.054688 115.976562 Z M 206.054688 115.976562 "/></g></g></g></g></svg>